M48
METRIC,LZ,000.000
;FILE_FORMAT=3:3
;TYPE=PLATED
;Layer: PTH_Through
;EasyEDA v6.5.50, 2025-04-28 15:17:28
;ec43f4f42a0a4547a17121b9b8cfd53d,1edd566ed00f4b82bd531d174b10065b,10
;Gerber Generator version 0.2
;Holesize 1 = 0.712 mm
T01C0.712
;Holesize 2 = 0.901 mm
T02C0.901
;Holesize 3 = 0.914 mm
T03C0.914
;Holesize 4 = 1.000 mm
T04C1.000
;Holesize 5 = 1.200 mm
T05C1.200
;Holesize 6 = 1.403 mm
T06C1.403
%
G05
G90
T01
X011430Y062230
X011430Y069850
X017907Y062103
X017907Y069723
X022860Y070231
X033020Y070231
X059055Y062103
X059055Y051943
X063754Y062103
X063754Y051943
X068072Y062103
X068072Y051943
X054102Y063500
X054102Y053340
X046863Y065405
X046863Y055245
X044196Y065405
X044196Y055245
T02
X022606Y082169
X025146Y082169
X027686Y082169
X030226Y082169
X022606Y074549
X025146Y074549
X027686Y074549
X030226Y074549
X063373Y077470
X060833Y077470
X056896Y077470
X054356Y077470
X050546Y077470
X048006Y077470
X063373Y069977
X060833Y069977
X056896Y069977
X054356Y069977
X050419Y069977
X047879Y069977
T03
X033020Y074295
X018288Y052070
T04
X039243Y060442
X036703Y060442
X024003Y060442
X021463Y060442
X034163Y060442
X031623Y060442
X026543Y060442
X029083Y060442
X021463Y052842
X024003Y052842
X026543Y052842
X029083Y052842
X031623Y052842
X034163Y052842
X036703Y052842
X039243Y052842
T05
X036485Y080720
X036485Y074220
X040985Y080720
X040985Y074220
T06
X012446Y080645
X012446Y075645
M30
