G04 Layer: TopLayer*
G04 EasyEDA v6.5.50, 2025-04-28 15:17:28*
G04 ec43f4f42a0a4547a17121b9b8cfd53d,1edd566ed00f4b82bd531d174b10065b,10*
G04 Gerber Generator version 0.2*
G04 Scale: 100 percent, Rotated: No, Reflected: No *
G04 Dimensions in millimeters *
G04 leading zeros omitted , absolute positions ,4 integer and 5 decimal *
%FSLAX45Y45*%
%MOMM*%

%ADD10C,0.6000*%
%ADD11C,1.6000*%
%ADD12R,1.5240X1.6000*%
%ADD13O,4.28498X2.3800054000000004*%
%ADD14C,2.4892*%
%ADD15C,1.4000*%
%ADD16C,1.9050*%
%ADD17C,2.0000*%
%ADD18R,1.7000X1.7000*%
%ADD19C,1.7000*%
%ADD20C,1.5240*%
%ADD21C,0.0128*%

%LPD*%
D10*
X1828800Y5207000D02*
G01*
X1828800Y5956300D01*
X3302000Y7429500D01*
D11*
G01*
X2260600Y8216900D03*
G01*
X2514600Y8216900D03*
G01*
X2768600Y8216900D03*
D12*
G01*
X3022600Y8216900D03*
D11*
G01*
X2260600Y7454900D03*
G01*
X2514600Y7454900D03*
G01*
X2768600Y7454900D03*
G01*
X3022600Y7454900D03*
D13*
G01*
X1244600Y8064500D03*
G01*
X1244600Y7564501D03*
D14*
G01*
X1143000Y6223000D03*
G01*
X1143000Y6985000D03*
G01*
X1790700Y6210300D03*
G01*
X1790700Y6972300D03*
D15*
G01*
X6337300Y7747000D03*
G01*
X6083300Y7747000D03*
G01*
X5689600Y7747000D03*
G01*
X5435600Y7747000D03*
G01*
X5054600Y7747000D03*
G01*
X4800600Y7747000D03*
G01*
X6337300Y6997700D03*
G01*
X6083300Y6997700D03*
G01*
X5689600Y6997700D03*
G01*
X5435600Y6997700D03*
G01*
X5041900Y6997700D03*
G01*
X4787900Y6997700D03*
D16*
G01*
X2286000Y7023100D03*
G01*
X3302000Y7023100D03*
G01*
X5905500Y6210300D03*
G01*
X5905500Y5194300D03*
G01*
X6375400Y6210300D03*
G01*
X6375400Y5194300D03*
G01*
X6807200Y6210300D03*
G01*
X6807200Y5194300D03*
G01*
X5410200Y6350000D03*
G01*
X5410200Y5334000D03*
G01*
X4686300Y6540500D03*
G01*
X4686300Y5524500D03*
G01*
X4419600Y6540500D03*
G01*
X4419600Y5524500D03*
D17*
G01*
X3648481Y8071993D03*
G01*
X3648532Y7422006D03*
G01*
X4098493Y8071993D03*
G01*
X4098518Y7422006D03*
D18*
G01*
X3924300Y6044209D03*
D19*
G01*
X3670300Y6044209D03*
G01*
X2400300Y6044209D03*
G01*
X2146300Y6044209D03*
G01*
X3416300Y6044209D03*
G01*
X3162300Y6044209D03*
G01*
X2654300Y6044209D03*
G01*
X2908300Y6044209D03*
G01*
X2146300Y5284190D03*
G01*
X2400300Y5284190D03*
G01*
X2654300Y5284190D03*
G01*
X2908300Y5284190D03*
G01*
X3162300Y5284190D03*
G01*
X3416300Y5284190D03*
G01*
X3670300Y5284190D03*
G01*
X3924300Y5284190D03*
D20*
G01*
X3302000Y7429500D03*
G01*
X1828800Y5207000D03*
M02*
