G04 Layer: BottomLayer*
G04 EasyEDA v6.5.50, 2025-04-28 15:17:28*
G04 ec43f4f42a0a4547a17121b9b8cfd53d,1edd566ed00f4b82bd531d174b10065b,10*
G04 Gerber Generator version 0.2*
G04 Scale: 100 percent, Rotated: No, Reflected: No *
G04 Dimensions in millimeters *
G04 leading zeros omitted , absolute positions ,4 integer and 5 decimal *
%FSLAX45Y45*%
%MOMM*%

%ADD10C,0.6000*%
%ADD11C,1.6000*%
%ADD12R,1.5240X1.6000*%
%ADD13O,4.28498X2.3800054000000004*%
%ADD14C,2.4892*%
%ADD15C,1.4000*%
%ADD16C,1.9050*%
%ADD17C,2.0000*%
%ADD18R,1.7000X1.7000*%
%ADD19C,1.7000*%
%ADD20C,1.5240*%
%ADD21C,0.0135*%

%LPD*%
D10*
X3670300Y5284215D02*
G01*
X3670300Y5029200D01*
X3568700Y4927600D01*
X1752600Y4927600D01*
X1625600Y5054600D01*
X1625600Y5549900D01*
X1892300Y5816600D01*
X2844800Y5816600D01*
X2908300Y5880100D01*
X2908300Y6044184D01*
X5905500Y6210300D02*
G01*
X6477000Y6781800D01*
X6477000Y7607300D01*
X6337300Y7747000D01*
X4686300Y6540500D02*
G01*
X5422900Y6540500D01*
X5689600Y6807200D01*
X5689600Y6997700D01*
X5410200Y6350000D02*
G01*
X5791200Y6731000D01*
X6070600Y6731000D01*
X6337300Y6997700D01*
X4546600Y7493000D02*
G01*
X4546600Y7264400D01*
X4800600Y7747000D02*
G01*
X4546600Y7748523D01*
X4787900Y6997700D02*
G01*
X4546600Y7239000D01*
X4546600Y7264400D01*
X5435600Y6997700D02*
G01*
X5321300Y6997700D01*
X5218429Y7100570D01*
X5218429Y7264400D01*
X5435600Y7747000D02*
G01*
X5317538Y7628938D01*
X5317538Y7264400D01*
X6083300Y6997700D02*
G01*
X6083300Y7162800D01*
X5981700Y7264400D01*
X4737100Y7264400D01*
X6083300Y7747000D02*
G01*
X6083300Y7366000D01*
X5981700Y7264400D01*
X4546600Y7264400D02*
G01*
X4737100Y7264400D01*
X1244600Y8064500D02*
G01*
X1092200Y8064500D01*
X596900Y5994400D02*
G01*
X596900Y8077200D01*
X965200Y8445500D01*
X2032000Y8445500D01*
X2260600Y8216900D01*
X3924300Y5284215D02*
G01*
X3924300Y4953000D01*
X3784600Y4813300D01*
X1473200Y4813300D01*
X596900Y5689600D01*
X596900Y5994400D01*
X1143000Y6985000D02*
G01*
X1778000Y6985000D01*
X1790700Y6972300D01*
X1244600Y8064500D02*
G01*
X1244600Y8445500D01*
X1143000Y6223000D02*
G01*
X876300Y6223000D01*
X749300Y6350000D01*
X749300Y7670800D01*
X952500Y7874000D01*
X1841500Y7874000D01*
X2260600Y7454900D01*
X1143000Y6985000D02*
G01*
X1143000Y7175500D01*
X1244600Y7277100D01*
X1244600Y7564498D01*
X2514600Y7454900D02*
G01*
X2514600Y7670800D01*
X2768600Y7924800D01*
X2768600Y8216900D01*
X3302000Y7429500D02*
G01*
X3641041Y7429500D01*
X3648534Y7422009D01*
X2514600Y8216900D02*
G01*
X2514600Y8407400D01*
X2603500Y8496300D01*
X3771900Y8496300D01*
X3924300Y8343900D01*
X3924300Y7596123D01*
X4098543Y7422134D01*
X2146300Y6044184D02*
G01*
X2033015Y5930900D01*
X1587500Y5930900D01*
X1447800Y6070600D01*
X1447800Y6985000D01*
X3302000Y7023100D02*
G01*
X3924300Y7023100D01*
X4098516Y7197316D01*
X4098516Y7422009D01*
X2286000Y7023100D02*
G01*
X2400300Y7023100D01*
X2514600Y7137400D01*
X2514600Y7454900D01*
X1790700Y6210300D02*
G01*
X1790700Y6527800D01*
X2286000Y7023100D01*
X2146300Y6044209D02*
G01*
X2146300Y6350000D01*
X2984500Y7188200D01*
X3213100Y7188200D01*
X3022600Y8216900D02*
G01*
X3022600Y7988300D01*
X3263900Y7747000D01*
X3619500Y7747000D01*
X3810000Y7556500D01*
X3810000Y7289800D01*
X3708400Y7188200D01*
X3213100Y7188200D01*
X4546600Y7823200D02*
G01*
X4318000Y7594600D01*
X4318000Y7239000D01*
X3924300Y6845300D01*
X3187700Y6845300D01*
X3098800Y6934200D01*
X3098800Y7188200D01*
X4419600Y6540500D02*
G01*
X4673600Y6794500D01*
X4838700Y6794500D01*
X5041900Y6997700D01*
X2400300Y5284215D02*
G01*
X2400300Y5511800D01*
X2489200Y5600700D01*
X3543300Y5600700D01*
X3619500Y5676900D01*
X4533900Y5676900D01*
X4686300Y5524500D01*
X5905500Y5194300D02*
G01*
X5740400Y5029200D01*
X5232400Y5029200D01*
X5080000Y5181600D01*
X5080000Y5664200D01*
X4737100Y6007100D01*
X4394200Y6007100D01*
X3962400Y6438900D01*
X3581400Y6438900D01*
X3416300Y6273800D01*
X3416300Y6044184D01*
X3162300Y6044184D02*
G01*
X3162300Y6375400D01*
X3327400Y6540500D01*
X4013200Y6540500D01*
X4394200Y6159500D01*
X4838700Y6159500D01*
X5207000Y5791200D01*
X5207000Y5257800D01*
X5308600Y5156200D01*
X5537200Y5156200D01*
X5676900Y5295900D01*
X5676900Y5448300D01*
X5803900Y5575300D01*
X6426200Y5575300D01*
X6807200Y5194300D01*
X4419600Y5524500D02*
G01*
X4419600Y5372100D01*
X4470400Y5321300D01*
X4749800Y5321300D01*
X4851400Y5422900D01*
X4851400Y5600700D01*
X4673600Y5778500D01*
X3987800Y5778500D01*
X3924300Y5842000D01*
X3924300Y6044184D01*
X6375400Y5194300D02*
G01*
X6375400Y5054600D01*
X6235700Y4914900D01*
X5194300Y4914900D01*
X4965700Y5143500D01*
X4965700Y5638800D01*
X4711700Y5892800D01*
X4178300Y5892800D01*
X4089400Y5981700D01*
X4089400Y6159500D01*
X3962400Y6286500D01*
X3759200Y6286500D01*
X3670300Y6197600D01*
X3670300Y6044184D01*
X3416300Y5284215D02*
G01*
X3416300Y5181600D01*
X3289300Y5054600D01*
X1981200Y5054600D01*
X1828800Y5207000D01*
X5410200Y5334000D02*
G01*
X5410200Y5778500D01*
X4889500Y6299200D01*
X4406900Y6299200D01*
X4025900Y6680200D01*
X2654300Y6680200D01*
X2400300Y6426200D01*
X2400300Y6044184D01*
X6807200Y6210300D02*
G01*
X6807200Y7683500D01*
X6477000Y8013700D01*
X5969000Y8013700D01*
X5867400Y7912100D01*
X5359400Y7912100D01*
X5194300Y7747000D01*
X5054600Y7747000D01*
X5689600Y7747000D02*
G01*
X5854700Y7747000D01*
X6019800Y7912100D01*
X6426200Y7912100D01*
X6654800Y7683500D01*
X6654800Y6489700D01*
X6375400Y6210300D01*
X3162300Y5284215D02*
G01*
X3162300Y5422900D01*
X3225800Y5486400D01*
X3987800Y5486400D01*
X4165600Y5308600D01*
X4165600Y4991100D01*
X4406900Y4749800D01*
X6896100Y4749800D01*
X6997700Y4851400D01*
X6997700Y7645400D01*
X6527800Y8115300D01*
X4838700Y8115300D01*
X4546600Y7823200D01*
X4546600Y7493000D01*
X596900Y5874257D02*
G01*
X1124457Y5874257D01*
X1333500Y6083300D01*
X1333500Y6375400D01*
X914400Y6794500D01*
X914400Y7632700D01*
X1054100Y7772400D01*
X1778000Y7772400D01*
X2032000Y7518400D01*
X2032000Y6921500D01*
X1574800Y6464300D01*
X1574800Y6134100D01*
X1689100Y6019800D01*
X1892300Y6019800D01*
X2032000Y6159500D01*
X2032000Y6464300D01*
X3022600Y7454900D01*
D11*
G01*
X2260600Y8216900D03*
G01*
X2514600Y8216900D03*
G01*
X2768600Y8216900D03*
D12*
G01*
X3022600Y8216900D03*
D11*
G01*
X2260600Y7454900D03*
G01*
X2514600Y7454900D03*
G01*
X2768600Y7454900D03*
G01*
X3022600Y7454900D03*
D13*
G01*
X1244600Y8064500D03*
G01*
X1244600Y7564501D03*
D14*
G01*
X1143000Y6223000D03*
G01*
X1143000Y6985000D03*
G01*
X1790700Y6210300D03*
G01*
X1790700Y6972300D03*
D15*
G01*
X6337300Y7747000D03*
G01*
X6083300Y7747000D03*
G01*
X5689600Y7747000D03*
G01*
X5435600Y7747000D03*
G01*
X5054600Y7747000D03*
G01*
X4800600Y7747000D03*
G01*
X6337300Y6997700D03*
G01*
X6083300Y6997700D03*
G01*
X5689600Y6997700D03*
G01*
X5435600Y6997700D03*
G01*
X5041900Y6997700D03*
G01*
X4787900Y6997700D03*
D16*
G01*
X2286000Y7023100D03*
G01*
X3302000Y7023100D03*
G01*
X5905500Y6210300D03*
G01*
X5905500Y5194300D03*
G01*
X6375400Y6210300D03*
G01*
X6375400Y5194300D03*
G01*
X6807200Y6210300D03*
G01*
X6807200Y5194300D03*
G01*
X5410200Y6350000D03*
G01*
X5410200Y5334000D03*
G01*
X4686300Y6540500D03*
G01*
X4686300Y5524500D03*
G01*
X4419600Y6540500D03*
G01*
X4419600Y5524500D03*
D17*
G01*
X3648481Y8071993D03*
G01*
X3648532Y7422006D03*
G01*
X4098493Y8071993D03*
G01*
X4098518Y7422006D03*
D18*
G01*
X3924300Y6044209D03*
D19*
G01*
X3670300Y6044209D03*
G01*
X2400300Y6044209D03*
G01*
X2146300Y6044209D03*
G01*
X3416300Y6044209D03*
G01*
X3162300Y6044209D03*
G01*
X2654300Y6044209D03*
G01*
X2908300Y6044209D03*
G01*
X2146300Y5284190D03*
G01*
X2400300Y5284190D03*
G01*
X2654300Y5284190D03*
G01*
X2908300Y5284190D03*
G01*
X3162300Y5284190D03*
G01*
X3416300Y5284190D03*
G01*
X3670300Y5284190D03*
G01*
X3924300Y5284190D03*
D20*
G01*
X3302000Y7429500D03*
G01*
X1828800Y5207000D03*
M02*
